<?xml version="1.0" encoding="utf-8"?>
<!DOCTYPE svg PUBLIC "-//W3C//DTD SVG 1.1//EN" "http://www.w3.org/Graphics/SVG/1.1/DTD/svg11.dtd">
<svg version="1.1" id="Layer_1" xmlns="http://www.w3.org/2000/svg" xmlns:xlink="http://www.w3.org/1999/xlink" x="0px" y="0px"
	 width="249.36px" height="167.28px" viewBox="0 0 249.36 167.28" enable-background="new 0 0 249.36 167.28" xml:space="preserve">
<g>
	<path d="M26.359,127.896v15.405h15.405v-15.405H26.359z M38.735,140.673h-2.618l-2.076-5.468l-2.198,5.468h-2.646l-1.547-10.23
		h2.66l0.746,5.889h0.027l2.457-5.889h1.058l2.348,5.889h0.027l0.854-5.889h2.646L38.735,140.673z"/>
	<path d="M42.991,127.896v15.405h15.405v-15.405H42.991z M53.649,132.736h-3.161v1.71h2.999v2.252h-2.999v1.763h3.161v2.253h-5.821
		v-10.231h5.821V132.736z"/>
	<path d="M68.508,136.818c-0.067-0.073-0.129-0.138-0.183-0.197c-0.054-0.058-0.142-0.104-0.265-0.136
		c-0.122-0.031-0.215-0.058-0.278-0.081c-0.063-0.022-0.174-0.038-0.332-0.047c-0.159-0.01-0.263-0.013-0.312-0.013
		c-0.049,0-0.16,0-0.332,0c-0.171,0-0.271,0-0.299,0h-0.271v2.197h0.339c0.217,0,0.364,0,0.44,0c0.077,0,0.224-0.009,0.441-0.026
		c0.218-0.02,0.378-0.05,0.482-0.096c0.104-0.044,0.227-0.106,0.367-0.183c0.14-0.078,0.239-0.182,0.298-0.312
		c0.059-0.13,0.088-0.288,0.088-0.469c0-0.135-0.013-0.257-0.041-0.366C68.624,136.98,68.576,136.89,68.508,136.818z"/>
	<path d="M59.598,127.896v15.405h15.405v-15.405H59.598z M71.066,139.07c-0.208,0.379-0.491,0.676-0.848,0.888
		c-0.357,0.213-0.747,0.369-1.167,0.469s-0.88,0.149-1.377,0.149h-4.098v-10.231h3.799c2.026,0,3.04,0.887,3.04,2.66
		c0,1.013-0.376,1.71-1.127,2.09v0.027c1.393,0.18,2.089,1.049,2.089,2.604C71.377,138.241,71.274,138.69,71.066,139.07z"/>
	<path d="M67.579,134.158c0.262-0.136,0.394-0.398,0.394-0.787c0-0.225-0.043-0.409-0.129-0.549
		c-0.086-0.14-0.215-0.241-0.387-0.299c-0.171-0.059-0.33-0.097-0.474-0.115c-0.145-0.018-0.331-0.027-0.557-0.027h-0.19v1.98h0.299
		C66.968,134.361,67.316,134.294,67.579,134.158z"/>
	<path d="M26.606,101.589v15.405h15.405v-15.405H26.606z M37.83,106.291h-2.197v7.978h-2.66v-7.978h-2.198v-2.252h7.055V106.291z"/>
	<path d="M43.214,101.589v15.405h15.405v-15.405H43.214z M53.874,106.429h-3.161v1.71h2.999v2.252h-2.999v1.763h3.161v2.252h-5.821
		v-10.23h5.821V106.429z"/>
	<path d="M59.823,101.589v15.405h15.405v-15.405H59.823z M70.883,114.269h-5.848v-10.23h2.659v7.978h3.188V114.269z"/>
	<path d="M26.443,38.627h15.405V23.222H26.443V38.627z M29.037,25.67h2.66l4.871,6.255h0.026V25.67h2.66v10.231h-2.66l-4.871-6.268
		h-0.027v6.268h-2.66V25.67z"/>
	<polygon points="50.789,28.971 50.762,28.971 49.663,32.227 51.874,32.227 	"/>
	<path d="M43.053,38.627h15.405V23.222H43.053V38.627z M49.337,25.809h2.904l3.854,10.231h-2.836l-0.665-1.777H48.93l-0.706,1.777
		h-2.822L49.337,25.809z"/>
	<path d="M59.66,23.222v15.405h15.405V23.222H59.66z M71.114,35.901l-0.746-5.889h-0.027l-2.456,5.889h-1.059l-2.347-5.889h-0.027
		l-0.854,5.889h-2.646l1.737-10.231h2.619l2.076,5.468l2.199-5.468h2.646l1.547,10.231H71.114z"/>
	<path d="M26.443,90.963h15.405V75.558H26.443V90.963z M31.283,78.008h5.821v2.252h-3.161v1.71h2.999v2.251h-2.999v1.763h3.161
		v2.253h-5.821V78.008z"/>
	<path d="M43.053,90.963h15.405V75.558H43.053V90.963z M46.08,78.146h2.619l2.076,5.468l2.198-5.468h2.646l1.547,10.23h-2.659
		l-0.747-5.889h-0.027l-2.457,5.889h-1.058l-2.348-5.889h-0.027l-0.855,5.889h-2.646L46.08,78.146z"/>
	<path d="M59.66,75.558v15.405h15.405V75.558H59.66z M70.721,88.238h-5.848v-10.23h2.66v7.978h3.188V88.238z"/>
</g>
<g>
	<g>
		<line fill="none" stroke="#000000" x1="26.443" y1="43.416" x2="27.443" y2="43.416"/>
		<line fill="none" stroke="#000000" stroke-dasharray="1.9896,1.9896" x1="29.433" y1="43.416" x2="223.422" y2="43.416"/>
		<line fill="none" stroke="#000000" x1="224.417" y1="43.416" x2="225.417" y2="43.416"/>
	</g>
</g>
<g>
	<g>
		<line fill="none" stroke="#000000" x1="26.443" y1="69.303" x2="27.443" y2="69.303"/>
		<line fill="none" stroke="#000000" stroke-dasharray="1.9896,1.9896" x1="29.433" y1="69.303" x2="223.422" y2="69.303"/>
		<line fill="none" stroke="#000000" x1="224.417" y1="69.303" x2="225.417" y2="69.303"/>
	</g>
</g>
<g>
	<g>
		<line fill="none" stroke="#000000" x1="26.443" y1="95.832" x2="27.443" y2="95.832"/>
		<line fill="none" stroke="#000000" stroke-dasharray="1.9896,1.9896" x1="29.433" y1="95.832" x2="223.422" y2="95.832"/>
		<line fill="none" stroke="#000000" x1="224.417" y1="95.832" x2="225.417" y2="95.832"/>
	</g>
</g>
<g>
	<g>
		<line fill="none" stroke="#000000" x1="26.606" y1="122.082" x2="27.606" y2="122.082"/>
		<line fill="none" stroke="#000000" stroke-dasharray="1.9896,1.9896" x1="29.596" y1="122.082" x2="223.585" y2="122.082"/>
		<line fill="none" stroke="#000000" x1="224.58" y1="122.082" x2="225.58" y2="122.082"/>
	</g>
</g>
<g>
	<g>
		<line fill="none" stroke="#000000" x1="26.359" y1="148.415" x2="27.359" y2="148.415"/>
		<line fill="none" stroke="#000000" stroke-dasharray="1.9896,1.9896" x1="29.349" y1="148.415" x2="223.338" y2="148.415"/>
		<line fill="none" stroke="#000000" x1="224.333" y1="148.415" x2="225.333" y2="148.415"/>
	</g>
</g>
</svg>
